<svg xmlns="http://www.w3.org/2000/svg"  viewBox="0 0 48 48" width="20px" height="20px"><path d="M 24.90625 0.98632812 C 19.90808 0.79585445 15.820313 2.6035156 15.820312 2.6035156 A 1.50015 1.50015 0 0 0 15.761719 2.6308594 C 14.290171 3.350586 13.171065 4.0838655 12.345703 4.8652344 C 11.740004 5.4386488 11.258364 6.0564852 11.017578 6.7734375 C 10.7549 6.7307641 10.482324 6.6993189 10.193359 6.6953125 C 9.2292911 6.681946 8.0774333 6.9789327 7.1171875 7.796875 C 6.1569417 8.6148173 5.4256203 9.8684523 4.9492188 11.605469 C 4.2970897 13.983231 4.1522991 15.816752 4.2519531 17.728516 C 4.3516071 19.640279 4.6617535 21.61525 4.9003906 24.621094 C 5.0099674 25.998536 3.8783405 28.642833 2.921875 31.578125 C 1.9654095 34.513417 1.3064757 38.068892 3.3671875 41.306641 C 5.3716869 44.455154 8.5462342 45.517852 11.462891 45.640625 C 13.936838 45.744763 16.328315 45.323816 18.232422 45.105469 A 1.50015 1.50015 0 0 0 20.990234 44.267578 L 20.990234 40.818359 C 21.992041 40.624047 22.889749 40.289575 23.677734 39.908203 C 23.472334 41.034602 23.597049 42.205758 24.130859 43.283203 C 25.372214 45.788758 28.497955 47.444575 33.007812 47.199219 C 37.624283 46.948093 40.721136 44.370407 42.101562 41.316406 C 43.481991 38.262406 43.378303 34.802429 41.935547 32.261719 C 39.739262 28.392307 39.245981 26.076754 40.095703 22.335938 C 41.064774 18.068645 40.707901 14.663723 39.351562 11.466797 C 36.019135 3.6144525 29.90442 1.1768018 24.90625 0.98632812 z M 14.203125 10.767578 C 14.614535 10.825934 15.04249 10.861328 15.503906 10.861328 C 17.566906 10.861328 20.028457 10.869828 22.099609 11.181641 C 24.170762 11.49342 25.692914 12.175856 26.183594 12.896484 A 1.50015 1.50015 0 0 0 26.183594 12.898438 C 26.748709 13.72793 27.420332 15.887213 27.603516 18.259766 C 26.811234 17.504786 25.612951 17.001953 24.132812 17.001953 C 21.442338 17.001953 19.632812 18.629731 19.632812 20.501953 C 19.632812 22.374175 21.442338 24.001953 24.132812 24.001953 C 25.428682 24.001953 26.513501 23.618257 27.296875 23.017578 C 27.047696 24.158916 26.670263 25.216919 26.144531 26.074219 C 24.726929 28.38723 23.68395 30.432185 23.46875 32.537109 C 23.346459 33.733264 23.681952 34.887959 24.300781 35.966797 C 23.407213 36.647235 21.283124 38.058687 19.048828 38 C 17.643669 37.96347 16.195384 37.240834 14.847656 35.367188 C 13.499928 33.493539 12.343935 30.463179 11.841797 26.148438 C 11.741349 25.2852 11.696121 24.443937 11.677734 23.617188 C 12.223906 23.854764 12.845636 24.001953 13.544922 24.001953 C 16.007845 24.001953 17.632812 22.300753 17.632812 20.501953 C 17.632812 18.703153 16.007845 17.001953 13.544922 17.001953 C 13.069939 17.001953 12.637476 17.080271 12.230469 17.195312 C 12.896529 13.756048 13.832273 11.571581 14.203125 10.767578 z M 13.544922 19.001953 C 15.197997 19.001953 15.632813 19.800753 15.632812 20.501953 C 15.632812 21.203153 15.197997 22.001953 13.544922 22.001953 C 12.643232 22.001953 12.112495 21.761495 11.808594 21.431641 C 11.919152 21.47554 12.037906 21.503906 12.164062 21.503906 C 12.698063 21.503906 13.132812 21.068203 13.132812 20.533203 C 13.132812 19.998203 12.698063 19.564453 12.164062 19.564453 C 12.05589 19.564453 11.956537 19.59422 11.859375 19.626953 C 11.864508 19.582 11.871647 19.538873 11.876953 19.494141 C 12.19172 19.204136 12.713645 19.001953 13.544922 19.001953 z M 24.132812 19.001953 C 26.109002 19.001953 26.632812 19.874175 26.632812 20.501953 C 26.632812 21.129731 26.109002 22.001953 24.132812 22.001953 C 22.633753 22.001953 21.973162 21.500743 21.740234 20.984375 C 21.917542 21.287881 22.232857 21.501953 22.609375 21.501953 C 23.173375 21.501953 23.632812 21.044469 23.632812 20.480469 C 23.632813 19.916469 23.173375 19.457031 22.609375 19.457031 C 22.340599 19.457031 22.100503 19.56835 21.917969 19.738281 C 22.249404 19.336205 22.912888 19.001953 24.132812 19.001953 z M 18.578125 21.990234 A 1.0001 1.0001 0 0 0 17.681641 22.634766 C 17.681641 22.634766 16.436819 25.779219 15.921875 27.080078 A 1.0001 1.0001 0 0 0 15.921875 27.082031 C 15.75252 27.510603 15.806016 28.001116 16.068359 28.386719 C 16.329298 28.770136 16.765739 29.001953 17.226562 29.001953 L 19.632812 29.001953 A 1.0001 1.0001 0 1 0 19.632812 27.001953 L 18.103516 27.001953 C 18.68853 25.523872 19.541016 23.369141 19.541016 23.369141 A 1.0001 1.0001 0 0 0 18.578125 21.990234 z M 21.646484 29.994141 A 1.0001 1.0001 0 0 0 21.025391 30.207031 C 20.485352 30.62011 19.108175 30.933237 17.908203 31.009766 C 16.708232 31.086296 15.712891 31.005859 15.712891 31.005859 A 1.0001 1.0001 0 1 0 15.550781 32.998047 C 15.550781 32.998047 16.675378 33.092589 18.035156 33.005859 C 19.394935 32.919139 21.019273 32.730796 22.240234 31.796875 A 1.0001 1.0001 0 0 0 21.646484 29.994141 z"/></svg>